<svg xmlns="http://www.w3.org/2000/svg" fill="none" viewBox="0 0 240 240"><mask id="a" width="200" height="118" x="20" y="61" maskUnits="userSpaceOnUse" style="mask-type:alpha"><path fill="#CEB988" d="M20 161.667h150v16.667H20z"/><path fill="#FF4552" fill-rule="evenodd" d="M36.667 61.667H20V145h16.667V61.667ZM103.333 95H86.667v50h16.666V95Zm50 0H120v16.667h16.667v16.666H120V145h33.333V95ZM70 128.333h16.667V145H70v-16.667ZM86.667 95H70v16.667h16.667V95Zm-33.334 16.667H70v16.666H53.333v-16.666Zm150-16.667H220v66.667h-16.667V145h-16.666v-16.667h16.666V95Zm-16.666 33.333H170V95h16.667v33.333Zm16.666 33.334v16.666h-16.666v-16.666h16.666Z" clip-rule="evenodd"/><path fill="#FF4552" d="M53.333 61.667H220v16.667H53.333z"/></mask><g mask="url(#a)"><circle cx="120" cy="120" r="120" fill="url(#b)"/></g><defs><linearGradient id="b" x1="53.726" x2="202.71" y1="30.764" y2="200.425" gradientUnits="userSpaceOnUse"><stop offset=".125" stop-color="#FF4552"/><stop offset=".917" stop-color="#FDC46E"/></linearGradient></defs></svg>
